<?xml version="1.0" standalone="no"?>
<!DOCTYPE svg PUBLIC "-//W3C//DTD SVG 20010904//EN"
 "http://www.w3.org/TR/2001/REC-SVG-20010904/DTD/svg10.dtd">
<svg version="1.0" xmlns="http://www.w3.org/2000/svg"
 width="700.000000pt" height="700.000000pt" viewBox="0 0 700.000000 700.000000"
 preserveAspectRatio="xMidYMid meet">
<metadata>
Created by potrace 1.14, written by Peter Selinger 2001-2017
</metadata>
<g transform="translate(0.000000,700.000000) scale(0.100000,-0.100000)"
fill="#000000" stroke="none">
<path d="M0 3500 l0 -3500 3500 0 3500 0 0 3500 0 3500 -3500 0 -3500 0 0
-3500z m4810 3215 l0 -275 -1175 0 -1175 0 0 275 0 275 1175 0 1175 0 0 -275z
m1040 -894 l0 -219 -1540 -2346 c-847 -1290 -1540 -2351 -1540 -2356 0 -13
656 -13 965 0 362 15 519 49 723 155 267 139 484 353 662 652 125 209 240 507
297 767 l27 126 203 0 203 0 0 -24 c0 -13 -27 -488 -60 -1056 -33 -568 -60
-1036 -60 -1041 0 -5 -992 -9 -2290 -9 l-2290 0 0 225 0 226 1540 2339 c847
1286 1540 2341 1540 2345 0 4 -219 5 -487 2 -433 -4 -503 -7 -621 -25 -479
-76 -744 -250 -1029 -676 -118 -178 -203 -358 -308 -661 l-53 -150 -197 -3
-197 -2 6 102 c9 139 86 1768 86 1812 l0 36 2210 0 2210 0 0 -219z"/>
</g>
</svg>
