<?xml version="1.0" standalone="no"?>
<!DOCTYPE svg PUBLIC "-//W3C//DTD SVG 20010904//EN"
 "http://www.w3.org/TR/2001/REC-SVG-20010904/DTD/svg10.dtd">
<svg version="1.0" xmlns="http://www.w3.org/2000/svg"
 width="700.000000pt" height="700.000000pt" viewBox="0 0 700.000000 700.000000"
 preserveAspectRatio="xMidYMid meet">
<metadata>
Created by potrace 1.14, written by Peter Selinger 2001-2017
</metadata>
<g transform="translate(0.000000,700.000000) scale(0.100000,-0.100000)"
fill="#000000" stroke="none">
<path d="M0 3500 l0 -3500 3500 0 3500 0 0 3500 0 3500 -3500 0 -3500 0 0
-3500z m6010 2736 l0 -224 -1645 -2506 c-905 -1378 -1645 -2509 -1645 -2512 0
-3 278 -4 618 -1 652 4 718 9 908 57 360 92 710 370 952 756 164 263 283 577
368 972 4 22 5 22 219 22 l215 0 0 -32 c1 -54 -121 -2181 -126 -2206 l-4 -22
-2440 0 -2440 0 0 233 0 232 1645 2498 c905 1374 1645 2500 1645 2503 0 3
-228 4 -507 1 -396 -4 -534 -8 -627 -21 -500 -69 -780 -230 -1059 -608 -185
-251 -294 -469 -417 -833 l-47 -140 -213 -3 -212 -2 6 87 c4 49 24 480 46 958
22 479 43 903 46 943 l6 72 2354 0 2354 0 0 -224z"/>
</g>
</svg>
